<?xml version="1.0" standalone="no"?>
<!DOCTYPE svg PUBLIC "-//W3C//DTD SVG 20010904//EN"
 "http://www.w3.org/TR/2001/REC-SVG-20010904/DTD/svg10.dtd">
<svg version="1.0" xmlns="http://www.w3.org/2000/svg"
 width="589.000000pt" height="423.000000pt" viewBox="0 0 589.000000 423.000000"
 preserveAspectRatio="xMidYMid meet">

<g transform="translate(0.000000,423.000000) scale(0.100000,-0.100000)"
fill="#000000" stroke="none">
<path d="M1701 4059 c-267 -32 -519 -176 -677 -385 -101 -135 -171 -300 -194
-459 -6 -43 -10 -452 -10 -1061 0 -1102 4 -1039 -69 -1151 -47 -73 -120 -133
-198 -164 -52 -21 -79 -23 -261 -27 -111 -2 -202 -6 -202 -8 0 -11 35 -73 73
-129 127 -187 330 -332 562 -402 81 -23 107 -26 250 -27 135 -1 174 3 249 22
152 38 319 128 428 229 l46 44 89 -71 c103 -84 269 -170 388 -201 101 -26 285
-36 393 -20 90 13 212 51 287 88 72 36 205 126 239 162 17 17 35 31 41 31 6 0
24 -14 40 -30 42 -44 181 -135 266 -174 138 -64 223 -81 404 -80 131 0 175 4
240 21 186 50 343 140 475 274 120 122 202 267 253 447 21 76 22 89 27 1037
l5 960 22 55 c49 120 150 213 271 250 56 17 93 20 284 20 l220 0 -7 27 c-16
67 -68 185 -114 258 -133 217 -351 375 -606 441 -142 37 -328 37 -466 1 -176
-46 -304 -113 -443 -231 l-46 -38 -52 47 c-71 64 -124 99 -216 145 -365 180
-781 126 -1094 -142 -31 -26 -61 -48 -67 -48 -6 0 -34 21 -63 47 -74 66 -185
136 -273 173 -145 60 -344 88 -494 69z m573 -796 c-4 -16 -10 -498 -13 -1073
-7 -1144 -2 -1067 -66 -1176 -39 -67 -102 -126 -167 -158 -52 -26 -138 -46
-138 -33 0 3 8 25 19 49 10 24 29 82 42 128 l23 85 6 955 c6 1043 2 980 63
1077 34 54 111 121 172 149 64 30 69 30 59 -3z m1425 -25 c-4 -24 -8 -484 -9
-1023 0 -631 -4 -1003 -11 -1045 -5 -36 -20 -87 -33 -115 -30 -65 -112 -154
-173 -187 -47 -25 -131 -53 -139 -46 -2 3 6 28 17 57 11 30 29 90 41 135 20
78 21 106 25 881 5 1184 2 1098 40 1175 37 76 97 140 168 181 72 42 84 39 74
-13z"/>
</g>
</svg>
